<svg width="60" height="60" viewBox="0 0 60 60" fill="none" xmlns="http://www.w3.org/2000/svg">
<g style="mix-blend-mode:multiply">
<path d="M0 0H11.25V3.75H7.5V7.5H3.75V11.25H0V0Z" fill="white"/>
<path d="M11.25 0H22.5V3.75H26.25V7.5H33.75V3.75H37.5V0H48.75V3.75H52.5V7.5H56.25V11.25H60V22.5H56.25V30H52.5V37.5H48.75V41.25H45V45H41.25V48.75H37.5V52.5H33.75V56.25H30V52.5H26.25V48.75H22.5V45H18.75V41.25H15V37.5H11.25V33.75H7.5V30H3.75V22.5H0V11.25H3.75V7.5H7.5V3.75H11.25V0Z" fill="#1A1A1A"/>
<path d="M22.5 0H37.5V3.75H33.75V7.5H26.25V3.75H22.5V0Z" fill="white"/>
<path d="M48.75 0H60V11.25H56.25V7.5H52.5V3.75H48.75V0Z" fill="white"/>
<path d="M0 22.5H3.75V30H7.5V33.75H11.25V37.5H15V41.25H18.75V45H22.5V48.75H26.25V52.5H30V56.25H33.75V52.5H37.5V48.75H41.25V45H45V41.25H48.75V37.5H52.5V30H56.25V22.5H60V37.5H56.25V45H52.5V48.75H45V52.5H52.5V48.75H56.25V45H60V52.5H56.25V56.25H48.75V60H15V56.25H7.5V52.5H3.75V48.75H0V22.5Z" fill="white"/>
<path d="M3.75 37.5H7.5V45H3.75V37.5Z" fill="#1A1A1A"/>
<path d="M56.25 37.5H60V45H56.25V37.5Z" fill="#1A1A1A"/>
<path d="M7.5 45H11.25V48.75H7.5V45Z" fill="#1A1A1A"/>
<path d="M52.5 45H56.25V48.75H52.5V45Z" fill="#1A1A1A"/>
<path d="M0 48.75H3.75V52.5H0V48.75Z" fill="#1A1A1A"/>
<path d="M11.25 48.75H18.75V52.5H11.25V48.75Z" fill="#1A1A1A"/>
<path d="M45 48.75H52.5V52.5H45V48.75Z" fill="#1A1A1A"/>
<path d="M0 52.5H3.75V56.25H7.5V60H0V52.5Z" fill="white"/>
<path d="M3.75 52.5H7.5V56.25H3.75V52.5Z" fill="#1A1A1A"/>
<path d="M56.25 52.5H60V56.25H56.25V52.5Z" fill="#1A1A1A"/>
<path d="M7.5 56.25H15V60H7.5V56.25Z" fill="#1A1A1A"/>
<path d="M48.75 56.25H56.25V60H48.75V56.25Z" fill="#1A1A1A"/>
<path d="M56.25 56.25H60V60H56.25V56.25Z" fill="white"/>
</g>
</svg>
